<?xml version="1.0" encoding="UTF-8"?>
<svg width="700pt" height="700pt" version="1.1" viewBox="0 0 700 700" xmlns="http://www.w3.org/2000/svg" xmlns:xlink="http://www.w3.org/1999/xlink">
<g>
  <path d="m473.2 441.45v-38.25h49.449l17.75-17.75v-38.25h27.047l17.754-17.75v-42.898l-17.75-17.75h-15.848v-38.25l-17.754-17.75h-128.8l6.5547-6.5547v-31.695l-17.754-17.75h-182.89l-96.152 96.152v110.09l96.152 96.152h244.5zm-252.95-4.6484-83.047-83.047v-91.508l83.047-83.047h164.3l4.6484 4.6484v13.105l-15.848 15.848h-90.551v22.398h241.75l4.6484 4.6484v28.953h-168v22.398h196.95l4.6484 4.6484v24.305l-4.6484 4.6484h-196.95v22.398h156.8v28.953l-4.6484 4.6484h-152.15v22.398h89.602v28.953l-4.6484 4.6484z"/>
</g>
</svg>
