<?xml version="1.0" encoding="UTF-8"?>
<svg width="700pt" height="700pt" version="1.1" viewBox="0 0 700 700" xmlns="http://www.w3.org/2000/svg" xmlns:xlink="http://www.w3.org/1999/xlink">
<g>
  <path d="m568.4 331.63-92.285-40.434h80.078l17.809-17.75v-42.898l-17.754-17.75h-206.25v-38.25l-17.754-17.75h-121.29l-96.152 96.152v110.09l96.152 96.152h160.5l16.801-16.801 15.121-90.777 126.56 48.609 23.297-6.2734 21.449-37.129zm-29.68 42.895-7.2812 1.9609-145.6-56-18.309 110.71-5.6016 5.6016h-141.68l-83.047-83.047v-91.508l83.047-83.047h102.71l4.6484 4.6484v28.953h-56v22.398h275.35l4.6484 4.6484v24.305l-4.6484 4.6484h-140.95v16.07l143.36 63 1.5117 5.6016z"/>
</g>
</svg>
